<svg id="svg3001" xmlns="http://www.w3.org/2000/svg" viewBox="0 0 23.21 19.64"><title>download</title><g id="g3003"><path id="path3005" d="M19.63,10.37a0.81,0.81,0,0,1-.2,1l-6.25,6.25a0.88,0.88,0,0,1-1.26,0L5.68,11.34a0.81,0.81,0,0,1-.2-1,0.83,0.83,0,0,1,.82-0.54H9.88V3.57a0.91,0.91,0,0,1,.89-0.89h3.57a0.91,0.91,0,0,1,.89.89V9.82h3.57A0.83,0.83,0,0,1,19.63,10.37Zm4.09,3a0.43,0.43,0,0,1,.45.45v8a0.43,0.43,0,0,1-.45.45H1.4A0.43,0.43,0,0,1,1,21.87v-8a0.43,0.43,0,0,1,.45-0.45H4.08a0.43,0.43,0,0,1,.45.45v4.91H20.6V13.84A0.43,0.43,0,0,1,21,13.39h2.68Z" transform="translate(-0.95 -2.68)"/></g></svg>