<svg xmlns="http://www.w3.org/2000/svg" version="1.1" x="0" y="0" viewBox="340 140 280 279.4" enable-background="new 340 140 280 279.416" xml:space="preserve"><path d="M620 305.7v-51.3l-31.5-5.2c-2.3-8.7-5.8-16.9-9.9-23.9L597.3 199.5l-36.2-36.7 -26.2 18.1c-7.6-4.1-15.7-7.6-23.9-9.9L505.7 140h-51.3l-5.2 31.5c-8.7 2.3-16.3 5.8-23.9 9.9L399.5 163.3 362.8 199.5l18.7 25.7c-4.1 7.6-7.6 15.8-9.9 24.5l-31.5 4.7v51.3l31.5 5.3c2.3 8.8 5.8 16.3 9.9 23.9l-18.7 26.3 36.2 36.2 26.3-18.7c7.6 4.1 15.8 7.6 24.5 9.9l5.3 30.9h51.3l5.3-31.5c8.2-2.3 16.3-5.8 23.9-9.9l26.3 18.7 36.2-36.2 -18.7-26.2c4.1-7.6 7.6-15.2 9.9-23.9L620 305.7zM480 333.7c-29.7 0-53.7-23.9-53.7-53.7s24.5-53.7 53.7-53.7S533.7 250.3 533.7 280 509.8 333.7 480 333.7z"/></svg>