<svg id="svg3070" xmlns="http://www.w3.org/2000/svg" viewBox="0 0 75.8 76.31"><defs><style>.cls-1{fill:#069;}.cls-2{fill:#fff;}</style></defs><title>linkedin</title><g id="layer1"><g id="g3019"><path id="path14" class="cls-1" d="M0,5.45A5.57,5.57,0,0,1,5.6-.05H70.2a5.57,5.57,0,0,1,5.6,5.5V70.75a5.57,5.57,0,0,1-5.6,5.5H5.6A5.57,5.57,0,0,1,0,70.75V5.45Z" transform="translate(0 0.05)"/><path id="path28" class="cls-2" d="M22.92,63.83V29.39H11.51V63.83H22.92ZM17.22,24.7c4,0,6.52-2.65,6.52-5.91s-2.45-5.91-6.42-5.91-6.52,2.55-6.52,5.91,2.55,5.91,6.42,5.91h0Z" transform="translate(0 0.05)"/><path id="path30" class="cls-2" d="M29.34,63.83H40.75V44.57a7.46,7.46,0,0,1,.41-2.75,6.32,6.32,0,0,1,5.91-4.18c4.18,0,5.81,3.16,5.81,7.74V63.83H64.29V44.06c0-10.6-5.6-15.49-13.14-15.49a11.4,11.4,0,0,0-10.39,5.81h0.1v-5H29.34c0.1,3.26,0,34.44,0,34.44h0Z" transform="translate(0 0.05)"/></g></g></svg>