<svg id="svg3349" xmlns="http://www.w3.org/2000/svg" viewBox="0 0 23.21 20.54"><title>upload</title><g id="g3351"><path id="path3353" d="M24.17,14.29v8a0.45,0.45,0,0,1-.45.45H1.4A0.45,0.45,0,0,1,1,22.32v-8a0.45,0.45,0,0,1,.45-0.45H4.08a0.45,0.45,0,0,1,.45.45V19.2H20.6V14.29A0.45,0.45,0,0,1,21,13.84h2.68A0.45,0.45,0,0,1,24.17,14.29ZM19.7,9.38a0.91,0.91,0,0,1-.89.89H15.24v6.25a0.91,0.91,0,0,1-.89.89H10.77a0.91,0.91,0,0,1-.89-0.89V10.27H6.31a0.89,0.89,0,0,1-.63-1.52L11.93,2.5a0.88,0.88,0,0,1,1.26,0l6.25,6.25A0.86,0.86,0,0,1,19.7,9.38Z" transform="translate(-0.95 -2.23)"/></g></svg>